<svg xmlns="http://www.w3.org/2000/svg" width="400" height="250" viewBox="0 0 400 250"><rect width="100%" height="100%" fill="#362ce1"/><path fill="#fff" d="M202.38 156.31h23.18q2.5 0 3.97 1.41t1.47 3.72v9.25h-62v-5.13q0-1.56.66-3.28.65-1.72 2.09-3.09l27.44-27.5q3.44-3.5 6.15-6.69 2.72-3.19 4.54-6.31 1.81-3.13 2.78-6.34.97-3.22.97-6.79 0-3.25-.94-5.71-.94-2.47-2.66-4.16t-4.12-2.53q-2.41-.85-5.41-.85-2.75 0-5.09.79-2.35.78-4.16 2.18-1.81 1.41-3.06 3.28-1.25 1.88-1.88 4.13-1.06 2.87-2.75 3.81t-4.87.44l-8.13-1.44q.94-6.5 3.63-11.4 2.68-4.91 6.72-8.19 4.03-3.28 9.25-4.94 5.21-1.66 11.22-1.66 6.25 0 11.43 1.85 5.19 1.84 8.88 5.22 3.69 3.37 5.75 8.12t2.06 10.56q0 5-1.47 9.25t-3.94 8.13q-2.46 3.87-5.78 7.5-3.31 3.62-6.93 7.37L191 158.13q2.94-.88 5.84-1.35 2.91-.47 5.54-.47"/></svg>