<svg xmlns="http://www.w3.org/2000/svg" width="400" height="250" viewBox="0 0 400 250"><rect width="100%" height="100%" fill="#362ce1"/><path fill="#fff" d="m179.495 106.44-8.12-1.44q.94-6.5 3.62-11.4 2.69-4.91 6.72-8.19t9.25-4.94 11.22-1.66q6.25 0 11.28 1.79 5.04 1.78 8.6 4.93 3.56 3.16 5.47 7.41 1.9 4.25 1.9 9.19 0 4.31-.97 7.59-.96 3.28-2.78 5.72-1.81 2.44-4.5 4.12-2.68 1.69-6.06 2.82 8.13 2.56 12.13 7.81t4 13.19q0 6.75-2.5 11.93-2.5 5.19-6.75 8.72t-9.85 5.35q-5.59 1.81-11.84 1.81-6.82 0-11.88-1.56-5.06-1.57-8.81-4.63t-6.38-7.5q-2.62-4.44-4.5-10.25l6.82-2.81q2.68-1.13 5.03-.59 2.34.53 3.4 2.53 1.13 2.18 2.47 4.31 1.35 2.12 3.22 3.78 1.88 1.66 4.41 2.69t6.03 1.03q3.94 0 6.88-1.28 2.93-1.28 4.9-3.35 1.97-2.06 2.94-4.59t.97-5.09q0-3.25-.69-5.91t-2.87-4.53q-2.19-1.88-6.29-2.94-4.09-1.06-10.97-1.06v-11q5.69-.06 9.44-1.06t5.97-2.78q2.22-1.79 3.1-4.29.87-2.5.87-5.5 0-6.37-3.56-9.68-3.56-3.32-9.5-3.32-2.75 0-5.07.79-2.31.78-4.15 2.18-1.85 1.41-3.1 3.28-1.25 1.88-1.87 4.13-1.06 2.87-2.78 3.81t-4.85.44"/></svg>