<?xml version="1.0" standalone="no"?>
<!DOCTYPE svg PUBLIC "-//W3C//DTD SVG 20010904//EN"
 "http://www.w3.org/TR/2001/REC-SVG-20010904/DTD/svg10.dtd">
<svg version="1.0" xmlns="http://www.w3.org/2000/svg"
 width="1184.000000pt" height="188.000000pt" viewBox="0 0 1184.000000 188.000000"
 preserveAspectRatio="xMidYMid meet">

<g transform="translate(0.000000,188.000000) scale(0.100000,-0.100000)"
fill="#000000" stroke="none">
<path d="M6575 1829 c-184 -27 -310 -112 -379 -258 -29 -62 -31 -73 -31 -181
0 -97 4 -124 24 -175 39 -98 137 -185 374 -334 229 -144 276 -182 311 -253 32
-65 33 -118 2 -183 -43 -94 -129 -144 -261 -153 -135 -8 -298 41 -405 122
l-35 27 -3 -122 c-2 -90 1 -126 10 -134 21 -19 137 -61 223 -81 104 -24 275
-24 364 0 238 64 373 244 359 474 -9 136 -66 240 -183 335 -33 26 -147 102
-253 169 -107 66 -210 136 -229 156 -119 119 -86 293 70 363 44 20 68 24 157
24 122 0 198 -22 301 -84 l64 -39 3 117 c3 137 5 135 -116 175 -128 43 -240
53 -367 35z"/>
<path d="M42 1708 l3 -103 228 -3 227 -2 0 -745 0 -745 110 0 110 0 0 745 0
745 223 2 222 3 3 103 3 102 -566 0 -566 0 3 -102z"/>
<path d="M1700 1429 c-130 -33 -214 -82 -310 -178 -139 -140 -194 -276 -194
-481 0 -205 55 -341 194 -481 139 -140 284 -199 485 -199 324 0 578 192 661
500 24 88 24 271 0 360 -33 121 -83 207 -176 301 -70 71 -100 94 -170 127 -47
22 -117 47 -157 56 -98 22 -239 20 -333 -5z m295 -194 c172 -45 307 -188 344
-363 63 -302 -160 -582 -464 -582 -355 0 -576 367 -420 698 94 199 322 303
540 247z"/>
<path d="M10163 1435 c-157 -44 -246 -137 -273 -283 -13 -72 0 -163 31 -224
36 -71 89 -116 275 -234 188 -118 223 -150 239 -217 17 -68 -25 -145 -100
-178 -45 -21 -152 -25 -223 -9 -45 11 -118 43 -176 80 l-36 22 0 -115 0 -115
53 -21 c140 -56 318 -69 439 -31 197 61 304 245 254 437 -32 125 -81 175 -320
323 -97 60 -179 119 -194 137 -60 80 -31 182 65 230 48 23 62 25 131 20 89 -6
157 -27 225 -68 l47 -29 0 109 c0 75 -4 112 -12 119 -7 6 -42 20 -78 33 -84
29 -268 36 -347 14z"/>
<path d="M2710 1418 c1 -7 83 -303 183 -658 l183 -645 114 -3 115 -3 154 423
c85 233 159 433 166 446 11 24 -1 60 237 -680 l60 -188 114 0 113 0 12 43 c12
46 346 1231 355 1260 5 15 -5 17 -108 17 l-114 0 -133 -512 c-73 -282 -136
-518 -140 -525 -3 -6 -78 225 -166 513 l-159 524 -104 0 c-95 0 -104 -2 -97
-17 3 -10 14 -45 22 -78 l16 -60 -158 -440 c-87 -242 -161 -443 -165 -447 -3
-5 -63 211 -133 480 -70 268 -132 504 -137 525 l-11 37 -109 0 c-82 0 -110 -3
-110 -12z"/>
<path d="M4690 1423 c0 -5 21 -39 45 -77 l45 -69 0 -584 0 -583 105 0 105 0 2
436 3 435 318 -435 318 -436 105 0 104 0 0 660 0 660 -105 0 -105 0 -2 -480
-3 -479 -344 479 -345 480 -123 0 c-68 0 -123 -3 -123 -7z"/>
<path d="M7430 770 l0 -660 365 0 365 0 0 95 0 95 -260 0 -260 0 0 190 0 190
240 0 240 0 0 95 0 95 -240 0 -240 0 0 185 0 185 260 0 260 0 0 95 0 95 -365
0 -365 0 0 -660z"/>
<path d="M8420 1420 c0 -6 20 -41 45 -78 l45 -67 0 -582 0 -583 100 0 100 0 2
441 3 440 320 -438 320 -438 103 -3 102 -3 0 661 0 660 -100 0 -100 0 -2 -481
-3 -482 -345 481 -345 481 -122 1 c-78 0 -123 -4 -123 -10z"/>
<path d="M10960 770 l0 -660 365 0 365 0 0 95 0 95 -260 0 -260 0 0 190 0 190
240 0 240 0 0 95 0 95 -240 0 -240 0 0 185 0 185 260 0 260 0 0 95 0 95 -365
0 -365 0 0 -660z"/>
</g>
</svg>
